HIERARCHY
ROOT Pelvis
{
	OFFSET 0.000000 0.000000 0.000000
	CHANNELS 6 Xposition Yposition Zposition Xrotation Yrotation Zrotation
	JOINT LeftUpLeg_virtual
	{
		OFFSET 0.000000 0.000000 0.000000
		CHANNELS 3 Xrotation Yrotation Zrotation
		JOINT LeftUpLeg
		{
			OFFSET 18.735201 -5.666702 -4.541200
			CHANNELS 3 Xrotation Yrotation Zrotation
			JOINT LeftLeg
			{
				OFFSET -0.021200 -31.938179 0.493100
				CHANNELS 3 Xrotation Yrotation Zrotation
				JOINT LeftFoot
				{
					OFFSET 0.021200 -31.938179 -4.336299
					CHANNELS 3 Xrotation Yrotation Zrotation
					JOINT LeftToeBase
					{
						OFFSET 0.943001 -26.722000 15.023500
						CHANNELS 3 Xrotation Yrotation Zrotation
						End Site
						{
							OFFSET 0 0 0
						}
					}
				}
			}
		}
	}
	JOINT RightUpLeg_virtual
	{
		OFFSET 0.000000 0.000000 0.000000
		CHANNELS 3 Xrotation Yrotation Zrotation
		JOINT RightUpLeg
		{
			OFFSET -18.735201 -5.666702 -4.541200
			CHANNELS 3 Xrotation Yrotation Zrotation
			JOINT RightLeg
			{
				OFFSET 0.018946 -31.938133 0.493100
				CHANNELS 3 Xrotation Yrotation Zrotation
				JOINT RightFoot
				{
					OFFSET -0.018946 -31.938126 -4.336299
					CHANNELS 3 Xrotation Yrotation Zrotation
					JOINT RightToeBase
					{
						OFFSET -0.943001 -26.722004 15.023500
						CHANNELS 3 Xrotation Yrotation Zrotation
						End Site
						{
							OFFSET 0 0 0
						}
					}
				}
			}
		}
	}
	JOINT Hips_virtual
	{
		OFFSET 0.000000 0.000000 0.000000
		CHANNELS 3 Xrotation Yrotation Zrotation
		JOINT Hips
		{
			OFFSET -0.000000 -0.000000 -0.000000
			CHANNELS 3 Xrotation Yrotation Zrotation
			JOINT Spine
			{
				OFFSET 0.000000 10.199997 -0.299500
				CHANNELS 3 Xrotation Yrotation Zrotation
				JOINT Spine1
				{
					OFFSET 0.000000 11.900002 -1.516600
					CHANNELS 3 Xrotation Yrotation Zrotation
					JOINT Spine2
					{
						OFFSET 0.000000 13.600006 -2.842500
						CHANNELS 3 Xrotation Yrotation Zrotation
						JOINT Neck_virtual
						{
							OFFSET 0.000000 0.000000 0.000000
							CHANNELS 3 Xrotation Yrotation Zrotation
							JOINT Neck
							{
								OFFSET 0.000000 9.624100 -2.890100
								CHANNELS 3 Xrotation Yrotation Zrotation
								JOINT Head
								{
									OFFSET 0.000000 14.068802 -1.351900
									CHANNELS 3 Xrotation Yrotation Zrotation
									End Site
									{
										OFFSET 0 0 0
									}
								}
							}
						}
						JOINT LeftShoulder_virtual
						{
							OFFSET 0.000000 0.000000 0.000000
							CHANNELS 3 Xrotation Yrotation Zrotation
							JOINT LeftShoulder
							{
								OFFSET 15.263000 10.923401 -0.547700
								CHANNELS 3 Xrotation Yrotation Zrotation
								JOINT LeftArm
								{
									OFFSET 25.438599 -2.830597 -13.032500
									CHANNELS 3 Xrotation Yrotation Zrotation
									JOINT LeftForeArm
									{
										OFFSET 29.960503 0.000000 0.000000
										CHANNELS 3 Xrotation Yrotation Zrotation
										JOINT LeftHand
										{
											OFFSET 27.849251 0.000000 0.000000
											CHANNELS 3 Xrotation Yrotation Zrotation
											End Site
											{
												OFFSET 0 0 0
											}
										}
									}
								}
							}
						}
						JOINT RightShoulder_virtual
						{
							OFFSET 0.000000 0.000000 0.000000
							CHANNELS 3 Xrotation Yrotation Zrotation
							JOINT RightShoulder
							{
								OFFSET -15.263000 10.923401 -0.547700
								CHANNELS 3 Xrotation Yrotation Zrotation
								JOINT RightArm
								{
									OFFSET -25.438599 -2.830597 -13.032500
									CHANNELS 3 Xrotation Yrotation Zrotation
									JOINT RightForeArm
									{
										OFFSET -29.960503 0.000000 0.000000
										CHANNELS 3 Xrotation Yrotation Zrotation
										JOINT RightHand
										{
											OFFSET -27.849251 0.000000 0.000000
											CHANNELS 3 Xrotation Yrotation Zrotation
											End Site
											{
												OFFSET 0 0 0
											}
										}
									}
								}
							}
						}
					}
				}
			}
		}
	}
}
MOTION
Frames: 5
Frame Time: 0.03333333
3.624023 4.400520 2.867241 0.000000 0.000000 0.000000 87.459664 0.113248 1.102496 -21.882487 4.224514 12.157277 21.385727 10.569449 1.598141 50.908624 26.842889 -18.647058 0.000000 0.000000 0.000000 87.459664 0.113248 1.102496 -19.188315 -5.475860 -15.153495 20.733236 -10.786254 -0.244661 50.292790 -25.946265 28.195970 0.000000 0.000000 0.000000 87.459664 0.113248 1.102496 0.000000 0.000000 0.000000 3.813894 0.558875 -1.165458 0.793258 0.138199 -0.141419 0.000000 0.000000 0.000000 0.792535 0.141294 -0.141442 -2.227628 -5.475253 2.716027 0.000000 0.000000 0.000000 0.792535 0.141294 -0.141442 3.766324 -21.296513 -1.256999 15.600410 -18.626728 -61.954453 -0.000007 -18.654976 -0.000002 0.000000 0.000000 0.000000 0.792535 0.141294 -0.141442 0.640297 15.700663 9.197082 13.898626 -3.320484 53.523487 -0.000000 31.875318 -0.000001 0.000000 0.000000 0.000000 
3.623276 4.405106 2.867989 0.000000 0.000000 0.000000 87.457861 0.121602 1.105878 -21.880948 4.224390 12.153631 21.403258 10.566886 1.607852 50.881310 26.863476 -18.720136 0.000000 0.000000 0.000000 87.457861 0.121602 1.105878 -19.190325 -5.480123 -15.161830 20.733983 -10.785787 -0.238249 50.301509 -25.944424 28.194505 0.000000 0.000000 0.000000 87.457861 0.121602 1.105878 0.000000 0.000000 0.000000 3.812880 0.552210 -1.164460 0.792723 0.136766 -0.140974 0.000000 0.000000 0.000000 0.792048 0.139859 -0.141001 -2.222886 -5.475242 2.712838 0.000000 0.000000 0.000000 0.792048 0.139859 -0.141001 3.780978 -21.376641 -1.256570 15.556881 -18.576976 -61.979698 0.000004 -18.573173 -0.000007 0.000000 0.000000 0.000000 0.792048 0.139859 -0.141001 0.640461 15.698713 9.195479 13.865609 -3.329056 53.534910 0.000005 31.844015 -0.000003 0.000000 0.000000 0.000000 
3.621348 4.412201 2.862640 0.000000 0.000000 0.000000 87.471494 0.124242 1.112537 -21.899357 4.212284 12.132187 21.395574 10.565544 1.630106 50.901534 26.869838 -18.732064 0.000000 0.000000 0.000000 87.471494 0.124242 1.112537 -19.167275 -5.485143 -15.174515 20.716433 -10.830494 -0.252473 50.290871 -25.927885 28.286634 0.000000 0.000000 0.000000 87.471494 0.124242 1.112537 0.000000 0.000000 0.000000 3.798758 0.548752 -1.161656 0.789351 0.135991 -0.140070 0.000000 0.000000 0.000000 0.788648 0.139073 -0.140101 -2.221381 -5.474839 2.710076 0.000000 0.000000 0.000000 0.788648 0.139073 -0.140101 3.778152 -21.356434 -1.261999 15.442677 -18.624191 -61.994793 0.000003 -18.349245 0.000007 0.000000 0.000000 0.000000 0.788648 0.139073 -0.140101 0.641334 15.722648 9.188437 13.818472 -3.398199 53.553160 -0.000006 31.811459 0.000002 0.000000 0.000000 0.000000 
3.622022 4.418510 2.861832 0.000000 0.000000 0.000000 87.434870 0.124048 1.107723 -21.878322 4.226083 12.145086 21.405827 10.567089 1.622657 50.901677 26.873256 -18.697446 0.000000 0.000000 0.000000 87.434870 0.124048 1.107723 -19.132185 -5.489070 -15.165890 20.724510 -10.834356 -0.255309 50.273624 -25.927460 28.285000 0.000000 0.000000 0.000000 87.434870 0.124048 1.107723 0.000000 0.000000 0.000000 3.828969 0.551611 -1.149817 0.796346 0.136676 -0.137240 0.000000 0.000000 0.000000 0.795641 0.139802 -0.137271 -2.218571 -5.474156 2.706732 0.000000 0.000000 0.000000 0.795641 0.139802 -0.137271 3.802396 -21.484643 -1.265551 15.394055 -18.473819 -62.000291 -0.000001 -18.315613 0.000002 0.000000 0.000000 0.000000 0.795641 0.139802 -0.137271 0.639801 15.714035 9.202240 13.755825 -3.457577 53.523466 0.000010 31.811592 0.000014 0.000000 0.000000 0.000000 
3.621419 4.424995 2.862152 0.000000 0.000000 0.000000 87.424208 0.130561 1.114358 -21.861503 4.223001 12.130375 21.418879 10.562446 1.645717 50.866980 26.893274 -18.790808 0.000000 0.000000 0.000000 87.424208 0.130561 1.114358 -19.093109 -5.503951 -15.176421 20.681362 -10.868951 -0.256945 50.295983 -25.918490 28.308267 0.000000 0.000000 0.000000 87.424208 0.130561 1.114358 0.000000 0.000000 0.000000 3.833938 0.550268 -1.144437 0.797285 0.136420 -0.135579 0.000000 0.000000 0.000000 0.796588 0.139557 -0.135615 -2.209425 -5.473396 2.702979 0.000000 0.000000 0.000000 0.796588 0.139557 -0.135615 3.808586 -21.523226 -1.260004 15.410519 -18.505308 -62.022790 -0.000007 -18.313800 -0.000000 0.000000 0.000000 0.000000 0.796588 0.139557 -0.135615 0.641777 15.719335 9.184081 13.639673 -3.519256 53.527342 -0.000001 31.722243 0.000007 0.000000 0.000000 0.000000 
